<?xml version="1.0" encoding="UTF-8"?>
<!DOCTYPE svg PUBLIC "-//W3C//DTD SVG 1.1//EN" "http://www.w3.org/Graphics/SVG/1.1/DTD/svg11.dtd">
<svg xmlns="http://www.w3.org/2000/svg" version="1.1" width="3680px" height="3680px" style="shape-rendering:geometricPrecision; text-rendering:geometricPrecision; image-rendering:optimizeQuality; fill-rule:evenodd; clip-rule:evenodd" xmlns:xlink="http://www.w3.org/1999/xlink">
<g><path style="opacity:0.999" fill="#27aae1" d="M 1826.5,34.5 C 2221.94,33.273 2579.94,146.773 2900.5,375C 3194.01,589.894 3405.18,867.727 3534,1208.5C 3632.07,1476.2 3665.23,1751.7 3633.5,2035C 3632.17,2035.67 3630.83,2035.67 3629.5,2035C 3585.14,2011.9 3539.64,1991.4 3493,1973.5C 3521.39,1602.05 3436.72,1259.05 3239,944.5C 3048.65,651.492 2792.15,437.659 2469.5,303C 2166.82,182.098 1855.15,151.432 1534.5,211C 1216.69,274.72 941.021,417.053 707.5,638C 498.437,838.994 350.937,1078.83 265,1357.5C 200.612,1574.49 180.945,1795.49 206,2020.5C 265.381,1909.31 340.214,1809.48 430.5,1721C 600.256,1562.49 801.59,1472.83 1034.5,1452C 1208.28,1439.36 1372.61,1472.69 1527.5,1552C 1623.86,1602.64 1705.02,1671.48 1771,1758.5C 1858.42,1879.2 1890.75,2013.53 1868,2161.5C 1861.89,2199.17 1850.55,2235.17 1834,2269.5C 1832.33,2271.83 1830.67,2274.17 1829,2276.5C 1815.67,2164.97 1766.17,2073.47 1680.5,2002C 1584.03,1927.38 1475.36,1900.38 1354.5,1921C 1244.51,1944.4 1158.34,2002.57 1096,2095.5C 1095.02,2096.76 1094.68,2098.09 1095,2099.5C 1157.93,2055.14 1228.09,2032.47 1305.5,2031.5C 1425.87,2034.93 1523.03,2083.6 1597,2177.5C 1608.17,2193.16 1618.34,2209.49 1627.5,2226.5C 1626.64,2227.58 1625.64,2227.75 1624.5,2227C 1547.45,2156.54 1456.78,2127.54 1352.5,2140C 1262.59,2152.35 1189.43,2193.51 1133,2263.5C 1077.87,2340.8 1060.2,2426.14 1080,2519.5C 1093.49,2574.14 1117.82,2623.14 1153,2666.5C 1175.05,2694.88 1199.55,2721.05 1226.5,2745C 1285.83,2794.38 1353.83,2830.71 1430.5,2854C 1524.95,2881.87 1621.45,2895.37 1720,2894.5C 1868.34,2896.63 2010.84,2869.13 2147.5,2812C 2253.49,2765.7 2352.82,2708.7 2445.5,2641C 2469.83,2622.67 2494.17,2604.33 2518.5,2586C 2621.55,2503.3 2722.55,2417.96 2821.5,2330C 2870.67,2288.42 2922.67,2250.75 2977.5,2217C 3048.15,2174.23 3124.48,2147.56 3206.5,2137C 3294.75,2126.7 3380.08,2138.03 3462.5,2171C 3508.32,2189.51 3548.16,2216.67 3582,2252.5C 3585.58,2256.65 3588.91,2260.99 3592,2265.5C 3551.39,2432.05 3488.05,2589.38 3402,2737.5C 3241.17,3010.33 3024.33,3227.17 2751.5,3388C 2416.84,3579.47 2057.18,3657.8 1672.5,3623C 1349.17,3590.04 1056.17,3479.37 793.5,3291C 499.992,3076.11 288.825,2798.27 160,2457.5C 46.3565,2144.47 19.6898,1824.14 80,1496.5C 151.03,1136.74 314.03,827.069 569,567.5C 820.154,315.783 1120.65,151.283 1470.5,74C 1588.04,49.2183 1706.7,36.0516 1826.5,34.5 Z M 292.5,2127.5 C 364.588,1930.59 490.921,1779.09 671.5,1673C 862.156,1566.95 1064.49,1535.95 1278.5,1580C 1408.96,1609.07 1525.96,1665.07 1629.5,1748C 1389.24,1648.98 1143.58,1633.65 892.5,1702C 643.562,1775.91 443.562,1917.75 292.5,2127.5 Z M 3440.5,2336.5 C 3430.62,2336.79 3420.95,2337.79 3411.5,2339.5C 3350.44,2346.91 3292.77,2365.08 3238.5,2394C 3183.04,2424.39 3131.04,2459.72 3082.5,2500C 3021.87,2551.63 2961.54,2603.63 2901.5,2656C 2848.03,2700.47 2793.7,2743.81 2738.5,2786C 2665.51,2839.86 2588.17,2887.19 2506.5,2928C 2393.29,2983.89 2273.63,3015.89 2147.5,3024C 2097.82,3027.31 2048.15,3027.81 1998.5,3025.5C 1992.01,3024.56 1985.34,3023.89 1978.5,3023.5C 1918,3018.67 1858.66,3007.67 1800.5,2990.5C 1801.21,2989.6 1802.21,2989.26 1803.5,2989.5C 1860.11,2993.99 1916.78,2994.66 1973.5,2991.5C 1980.35,2991.18 1987.01,2990.52 1993.5,2989.5C 2101.77,2982.02 2205.44,2956.18 2304.5,2912C 2380.78,2877.71 2453.12,2837.04 2521.5,2790C 2551.19,2769.16 2580.52,2747.82 2609.5,2726C 2657.79,2687.38 2705.79,2648.38 2753.5,2609C 2804.17,2565 2854.83,2521 2905.5,2477C 2947.69,2441.24 2992.36,2408.91 3039.5,2380C 3098.8,2343.69 3162.8,2319.69 3231.5,2308C 3316.98,2294.65 3399.98,2303.65 3480.5,2335C 3467.14,2335.24 3453.81,2335.74 3440.5,2336.5 Z"/></g>
<g><path style="opacity:0.686" fill="#6cb8e4" d="M 3440.5,2336.5 C 3431.05,2338.21 3421.38,2339.21 3411.5,2339.5C 3420.95,2337.79 3430.62,2336.79 3440.5,2336.5 Z"/></g>
<g><path style="opacity:0.106" fill="#accfea" d="M 1803.5,2989.5 C 1802.21,2989.26 1801.21,2989.6 1800.5,2990.5C 1799.23,2989.91 1797.9,2989.41 1796.5,2989C 1799.04,2988.2 1801.37,2988.37 1803.5,2989.5 Z"/></g>
<g><path style="opacity:0.686" fill="#7cbce5" d="M 1993.5,2989.5 C 1987.01,2990.52 1980.35,2991.18 1973.5,2991.5C 1979.92,2989.8 1986.59,2989.13 1993.5,2989.5 Z"/></g>
<g><path style="opacity:0.686" fill="#81bee5" d="M 1978.5,3023.5 C 1985.34,3023.89 1992.01,3024.56 1998.5,3025.5C 1991.58,3025.93 1984.91,3025.27 1978.5,3023.5 Z"/></g>
</svg>
